# xmcd CD database file
#
# Track frame offsets:
#	150
#	28005
#	48651
#	69549
#	86132
#	110562
#	125282
#	149362
#	167046
#	183093
#	199941
#
# Disc length: 2941 seconds
#
# Revision: 0
# Processed by: cddbd v1.5.2PL0 Copyright (c) Steve Scherf et al.
# Submitted via: CDex 1.70beta2
#
DISCID=9e0b7b0b
DTITLE=norma o'hara murphy - whiskey gully road
DYEAR=2010
DGENRE=Country
TTITLE0=norma o'hara murphy - whiskey gully road
TTITLE1=norma o'hara murphy - hey ned
TTITLE2=norma o'hara murphy - long dry gully
TTITLE3=norma o'hara murphy - the sheik
TTITLE4=norma o'hara murphy - goin' for glory
TTITLE5=norma o'hara murphy - the real thing
TTITLE6=norma o'hara murphy - sarah jane
TTITLE7=norma o'hara murphy - thunderbolt
TTITLE8=norma o'hara murphy - rose coloured glasses
TTITLE9=norma o'hara murphy - victor harbour song
TTITLE10=norma o'hara murphy - proserpine rose
EXTD=YEAR: 2010
EXTT0=
EXTT1=
EXTT2=
EXTT3=
EXTT4=
EXTT5=
EXTT6=
EXTT7=
EXTT8=
EXTT9=
EXTT10=
PLAYORDER=
